<svg width="337" height="198" fill="none" xmlns="http://www.w3.org/2000/svg"><rect x=".5" y=".5" width="336" height="197" rx="11.5" fill="#152238" stroke="#152238"/><path d="M146.469 81.664c1 0 1.711.117 2.133.352.421.218.632.593.632 1.125v6.421c0 .532-.172.915-.515 1.149-.328.219-.875.328-1.641.328-.516 0-.922-.062-1.219-.187a1.57 1.57 0 01-.703-.563c-.734-1.156-1.679-2.047-2.836-2.672-1.156-.64-2.492-.96-4.008-.96-1.14 0-2.039.288-2.695.866-.64.579-.961 1.329-.961 2.25 0 .454.141.829.422 1.125.281.282.688.532 1.219.75.687.266 1.867.54 3.539.82 1.625.313 2.953.61 3.984.891 1.032.266 2 .68 2.907 1.243 2.5 1.515 3.75 3.96 3.75 7.336 0 1.718-.368 3.218-1.102 4.5-.719 1.281-1.805 2.281-3.258 3-1.453.718-3.242 1.078-5.367 1.078-2.609 0-4.82-.789-6.633-2.368v.891c0 .531-.195.906-.586 1.125-.375.234-1.054.352-2.039.352-1 0-1.711-.118-2.133-.352-.421-.219-.632-.594-.632-1.125v-7.828c0-.531.164-.906.492-1.125.343-.234.898-.352 1.664-.352.547 0 .976.07 1.289.211.328.141.578.383.75.727.844 1.609 1.851 2.82 3.023 3.633 1.172.812 2.539 1.218 4.102 1.218 1.375 0 2.422-.281 3.141-.843.718-.563 1.078-1.344 1.078-2.344 0-.625-.164-1.148-.493-1.57-.312-.438-.773-.805-1.382-1.102a8.353 8.353 0 00-1.664-.61 62.692 62.692 0 00-2.649-.609 63.673 63.673 0 01-3.328-.773 11.683 11.683 0 01-2.461-.961c-1.187-.625-2.117-1.453-2.789-2.484-.672-1.047-1.008-2.399-1.008-4.055 0-1.656.383-3.125 1.149-4.406.765-1.297 1.836-2.305 3.211-3.024 1.39-.719 2.976-1.078 4.757-1.078 1.25 0 2.407.203 3.469.61a8.148 8.148 0 012.766 1.734v-.867c0-.532.187-.907.562-1.125.391-.235 1.078-.352 2.063-.352zm34.851.516c.375 0 .664.07.868.21.203.126.351.36.445.704.109.344.164.844.164 1.5s-.055 1.156-.164 1.5c-.094.344-.242.578-.445.703-.204.125-.493.187-.868.187h-1.593l-8.508 22.008c-.219.563-.555.953-1.008 1.172-.453.234-1.156.352-2.109.352-.954 0-1.657-.118-2.11-.352-.437-.234-.758-.625-.961-1.172l-8.203-22.008h-1.805c-.375 0-.664-.062-.867-.187-.203-.125-.351-.36-.445-.703-.109-.344-.164-.844-.164-1.5s.055-1.156.164-1.5c.094-.344.242-.578.445-.703.203-.141.492-.211.867-.211h10.172c.375 0 .664.07.867.21.204.126.352.36.446.704.109.344.164.844.164 1.5s-.055 1.156-.164 1.5c-.094.344-.242.578-.446.703-.203.125-.492.187-.867.187h-2.086l5.039 14.368 5.368-14.368h-1.664c-.375 0-.664-.062-.868-.187-.203-.125-.359-.36-.468-.703-.094-.344-.141-.844-.141-1.5s.047-1.156.141-1.5c.109-.344.265-.578.468-.703.204-.141.493-.211.868-.211h9.468zm24.118-.516c.968 0 1.632.11 1.992.328.359.219.539.602.539 1.149v8.062c0 .531-.242.914-.727 1.149-.469.218-1.258.328-2.367.328-.734 0-1.305-.047-1.711-.14-.391-.11-.664-.267-.82-.47-.156-.203-.235-.492-.235-.867 0-1.344-.406-2.383-1.218-3.117-.813-.734-2.047-1.102-3.703-1.102-2.172 0-3.821.782-4.946 2.344-1.125 1.563-1.687 3.813-1.687 6.75 0 2.906.593 5.156 1.781 6.75 1.203 1.578 2.898 2.367 5.086 2.367 1.734 0 3.375-.234 4.922-.703v-3.914h-4.524c-.375 0-.664-.062-.867-.187-.203-.125-.359-.36-.469-.704-.093-.343-.14-.843-.14-1.5 0-.656.047-1.156.14-1.5.11-.343.266-.578.469-.703.203-.14.492-.21.867-.21h11.11c.375 0 .664.07.867.21.203.125.351.36.445.704.11.343.164.843.164 1.5 0 .656-.054 1.156-.164 1.5-.094.343-.242.578-.445.703s-.492.187-.867.187h-.727v6.07c0 .375-.078.704-.234.985a1.411 1.411 0 01-.61.633c-1.453.75-3.047 1.312-4.781 1.687a25.434 25.434 0 01-5.39.563c-2.563 0-4.821-.586-6.774-1.758-1.953-1.172-3.469-2.844-4.547-5.016-1.062-2.187-1.594-4.742-1.594-7.664 0-2.906.524-5.445 1.571-7.617 1.047-2.188 2.492-3.867 4.336-5.04 1.859-1.171 3.961-1.757 6.304-1.757 2.75 0 4.782.922 6.094 2.766v-1.29c0-.53.227-.906.68-1.124.453-.235 1.18-.352 2.18-.352z" fill="#fff"/></svg>